<?xml version="1.0" encoding="utf-8"?>
<!-- Generator: Adobe Illustrator 21.0.0, SVG Export Plug-In . SVG Version: 6.00 Build 0)  -->
<svg version="1.1" id="Layer_1" xmlns="http://www.w3.org/2000/svg" xmlns:xlink="http://www.w3.org/1999/xlink" x="0px" y="0px"
	 viewBox="0 0 800 800" style="enable-background:new 0 0 800 800;" xml:space="preserve">
<style type="text/css">
	.st0{fill:#144448;}
	.st1{fill:#A5754A;}
	.st2{fill:#B28352;}
	.st3{fill:#FFFFFF;}
</style>
<g>
	<path class="st1" d="M245.6,216.8c0-0.3,0.1-0.6,0.3-0.8c4.4-3.7,8.9-7.2,13.4-10.4c3.1-2.2,6.5-4.6,10.5-7.2c0,0,0.1,0,0.1,0
		c5.2-3.4,10.6-6.5,16-9.5c3.8-2.1,7.3-3.8,10.6-5.4c0.4-0.2,0.8-0.1,1.1,0.2l146.1,143c0.3,0.3,0.4,0.9,0.1,1.3
		c-0.2,0.2-0.4,0.3-0.7,0.4c0,0,0,0-0.1,0c-0.2,0-0.3,0-0.5-0.1L246.1,217.5C245.8,217.4,245.6,217.1,245.6,216.8z M472.7,359.1
		c0.1,0.2,0.2,0.3,0.4,0.4c0.1,0.1,0.3,0.1,0.4,0.1c0.1,0,0.3,0,0.4-0.1c0.4-0.2,0.7-0.7,0.5-1.1l-55-196.9
		c-0.1-0.4-0.4-0.7-0.9-0.7c-3.6-0.3-7.5-0.5-11.8-0.6c-6.2-0.2-12.5-0.1-18.7,0.2c-4.7,0.2-8.8,0.5-12.7,0.9
		c-5.6,0.6-11.2,1.4-16.8,2.4c-0.3,0.1-0.6,0.3-0.7,0.5c-0.1,0.3-0.1,0.6,0,0.9L472.7,359.1z M471.8,443L471.8,443
		C471.8,443,471.8,443,471.8,443c0,0.3,0.1,0.6,0.3,0.8c0.2,0.1,0.4,0.2,0.6,0.2c0.3,0,0.5-0.1,0.7-0.3l143-146.1
		c0.3-0.3,0.4-0.7,0.2-1.1c-1.6-3.3-3.4-6.8-5.4-10.6c-2.9-5.4-6.1-10.8-9.5-16v0c0,0,0-0.1,0-0.1c-2.5-3.9-4.9-7.4-7.2-10.5
		c-3.3-4.5-6.8-9-10.4-13.4c-0.2-0.2-0.5-0.4-0.8-0.3c-0.3,0-0.6,0.2-0.7,0.5L471.8,442.5C471.7,442.7,471.8,442.9,471.8,443z
		 M175.4,318.9L175.4,318.9l225.5-2.4c0.5,0,0.9-0.4,0.9-0.8c0.1-0.5-0.2-0.9-0.7-1L203,263.8c-0.4-0.1-0.8,0.1-1,0.4
		c-2.1,3-4.2,6.3-6.4,10c-3.2,5.2-6.3,10.7-9.1,16.2c0,0,0,0.1,0,0.1c-2.1,4.2-3.9,7.9-5.5,11.5c-2.3,5.1-4.4,10.4-6.4,15.7
		c-0.1,0.3-0.1,0.6,0.1,0.9C174.8,318.8,175.1,318.9,175.4,318.9z M553.9,582.5L357.5,471.8c-0.2-0.1-0.3-0.1-0.5-0.1h0l0,0
		c-0.3,0-0.6,0.1-0.7,0.3c-0.3,0.4-0.2,0.9,0.1,1.3l146.1,143c0.2,0.2,0.4,0.3,0.7,0.3c0.1,0,0.3,0,0.4-0.1
		c3.3-1.6,6.7-3.3,10.6-5.4c5.5-3,10.9-6.2,16.1-9.5c3.9-2.5,7.4-4.9,10.5-7.2c4.5-3.3,9-6.8,13.4-10.4c0.2-0.2,0.4-0.5,0.3-0.8
		C554.4,582.9,554.2,582.6,553.9,582.5z M624.6,481l-225.5,2.4c-0.2,0-0.3,0.1-0.5,0.2c-0.2,0.1-0.4,0.4-0.5,0.7
		c-0.1,0.5,0.2,0.9,0.7,1L597,536.2c0.1,0,0.2,0,0.2,0c0.3,0,0.6-0.2,0.8-0.4c2.1-3,4.2-6.3,6.4-10c3.2-5.3,6.3-10.7,9.1-16.2
		c0,0,0-0.1,0-0.1c2.1-4.2,4-7.9,5.5-11.5c2.3-5.1,4.4-10.4,6.4-15.7c0.1-0.3,0.1-0.6-0.1-0.9C625.2,481.2,624.9,481,624.6,481z
		 M635,357.9l-194,114.8c-0.2,0.1-0.2,0.2-0.3,0.4c-0.1,0.3-0.2,0.5-0.1,0.8c0.2,0.4,0.7,0.7,1.1,0.5l197-55c0.1,0,0.2-0.1,0.2-0.1
		c0.3-0.2,0.5-0.4,0.5-0.8c0.3-3.6,0.5-7.5,0.6-11.8c0.2-6.2,0.1-12.4-0.2-18.6c0,0,0-0.1,0-0.1c-0.2-4.7-0.5-8.8-0.9-12.7
		c-0.6-5.6-1.4-11.2-2.4-16.8c-0.1-0.3-0.3-0.6-0.5-0.7C635.6,357.7,635.2,357.8,635,357.9z M327.3,440.9c-0.2-0.4-0.8-0.6-1.2-0.4
		c-0.4,0.2-0.7,0.7-0.5,1.1l55,196.9c0.1,0.4,0.4,0.7,0.9,0.7c3.7,0.3,7.5,0.5,11.8,0.6c2.2,0.1,4.4,0.1,6.6,0.1
		c4,0,8.1-0.1,12.1-0.3c4.7-0.2,8.9-0.5,12.7-0.9c5.6-0.6,11.2-1.4,16.8-2.4c0.3-0.1,0.6-0.3,0.7-0.5s0.1-0.6,0-0.9L327.3,440.9z
		 M316.3,398.7L316.3,398.7c-0.1-0.2-0.4-0.4-0.7-0.5c-0.5-0.1-0.9,0.2-1,0.7L263.8,597c-0.1,0.4,0.1,0.8,0.4,1c3,2,6.2,4.1,10,6.4
		c5.3,3.2,10.7,6.3,16.2,9.1v0c0,0,0.1,0,0.1,0c4.2,2.1,7.9,4,11.5,5.5c5.1,2.3,10.4,4.4,15.7,6.4c0.1,0,0.2,0.1,0.3,0.1
		c0.2,0,0.4-0.1,0.6-0.2c0.3-0.2,0.4-0.5,0.4-0.8l-2.4-225.4C316.5,399,316.4,398.8,316.3,398.7z M484.3,401.8c0,0,0.1,0,0.1,0
		c0.4,0,0.8-0.3,0.9-0.7L536.2,203c0.1-0.4-0.1-0.8-0.4-1c-3-2-6.2-4.1-10-6.4c-5.3-3.2-10.7-6.3-16.3-9.2c-4.2-2.2-7.9-4-11.5-5.5
		c-5.1-2.3-10.4-4.4-15.7-6.4c-0.3-0.1-0.6-0.1-0.9,0.1c-0.3,0.2-0.4,0.5-0.4,0.8l2.4,225.4C483.5,401.3,483.8,401.7,484.3,401.8z
		 M359.5,326c-0.2-0.4-0.7-0.7-1.1-0.5l-196.9,55c-0.4,0.1-0.7,0.4-0.7,0.9c-0.3,3.6-0.5,7.5-0.6,11.8c-0.2,6.2-0.1,12.5,0.2,18.6
		c0,0,0,0.1,0,0.1c0.2,4.7,0.5,8.8,0.9,12.7c0.6,5.6,1.4,11.2,2.4,16.8c0.1,0.3,0.3,0.6,0.5,0.7c0.1,0.1,0.3,0.1,0.4,0.1
		c0.2,0,0.3,0,0.5-0.1l194-114.8C359.5,327,359.7,326.5,359.5,326z M327.9,356.2c-0.4-0.3-0.9-0.2-1.3,0.1l-143,146.1
		c-0.3,0.3-0.4,0.7-0.2,1.1c1.6,3.3,3.3,6.7,5.4,10.6c3,5.5,6.1,10.8,9.5,16c0,0,0,0.1,0,0.1c2.5,3.9,4.9,7.4,7.2,10.5
		c3.3,4.5,6.8,9,10.4,13.4c0.2,0.2,0.5,0.4,0.8,0.3c0.1,0,0.3-0.1,0.4-0.1c0.1-0.1,0.3-0.2,0.4-0.4l110.6-196.5
		C328.4,357,328.3,356.5,327.9,356.2z"/>
	<path class="st2" d="M472.7,359.1c0.1,0.2,0.2,0.3,0.4,0.4C473,359.4,472.8,359.2,472.7,359.1z M316.5,399.1l2.4,225.4
		c0,0.3-0.2,0.6-0.4,0.8c-0.2,0.1-0.4,0.2-0.6,0.2c-0.1,0-0.2,0-0.3-0.1c-5.3-1.9-10.6-4.1-15.7-6.4c-3.5-1.6-7.3-3.4-11.5-5.5
		c0,0-0.1,0-0.1,0l25.9-214.9C316.4,398.8,316.5,399,316.5,399.1z M327.3,440.9c-0.1-0.2-0.2-0.2-0.4-0.3l85,199.1c0,0,0.1,0,0.1,0
		c4.7-0.2,8.9-0.5,12.7-0.9c5.6-0.6,11.2-1.4,16.8-2.4c0.3-0.1,0.6-0.3,0.7-0.5c0.1-0.3,0.1-0.6,0-0.9L327.3,440.9z M164.1,442.1
		c0.1,0.1,0.3,0.1,0.4,0.1c0.2,0,0.3,0,0.5-0.1l194-114.8c0.2-0.1,0.2-0.2,0.3-0.4l-199.1,85c0,0,0,0.1,0,0.1
		c0.2,4.7,0.5,8.8,0.9,12.7c0.6,5.6,1.4,11.2,2.4,16.8C163.7,441.7,163.9,442,164.1,442.1z M217.5,553.9l110.6-196.5
		c0.1-0.2,0.1-0.3,0.1-0.5L198.3,530.1c0,0,0,0.1,0,0.1c2.5,3.9,4.9,7.4,7.2,10.5c3.3,4.5,6.8,9,10.4,13.4c0.2,0.2,0.5,0.3,0.7,0.3
		c0,0,0.1,0,0.1,0C217.1,554.4,217.4,554.2,217.5,553.9z M553.9,582.5L357.5,471.8c-0.2-0.1-0.3-0.1-0.5-0.1l173.1,129.9
		c0,0,0,0,0.1,0c3.9-2.5,7.4-4.9,10.5-7.2c4.5-3.3,9-6.8,13.4-10.4c0.2-0.2,0.4-0.5,0.3-0.8C554.4,582.9,554.2,582.6,553.9,582.5z
		 M624.6,481l-225.5,2.4c-0.2,0-0.3,0.1-0.5,0.2l214.9,25.9c0,0,0-0.1,0-0.1c2.1-4.2,4-7.9,5.5-11.5c2.3-5.1,4.4-10.4,6.4-15.7
		c0.1-0.3,0.1-0.6-0.1-0.9C625.2,481.2,624.9,481,624.6,481z M483.7,401.3l25.9-214.9c0,0-0.1,0-0.1,0c-4.2-2.2-7.9-4-11.5-5.5
		c-5.1-2.3-10.4-4.4-15.7-6.4c-0.3-0.1-0.6-0.1-0.9,0.1c-0.3,0.2-0.4,0.5-0.4,0.8l2.4,225.4C483.5,401,483.6,401.2,483.7,401.3z
		 M175.4,318.9L175.4,318.9l225.5-2.4c0.2,0,0.3-0.1,0.5-0.2l-214.9-25.9c0,0,0,0.1,0,0.1c-2.1,4.2-3.9,7.9-5.5,11.5
		c-2.3,5.1-4.4,10.4-6.4,15.7c-0.1,0.3-0.1,0.6,0.1,0.9C174.8,318.8,175.1,318.9,175.4,318.9z M639.7,388.1
		c-0.2-4.7-0.5-8.9-0.9-12.7c-0.6-5.6-1.4-11.2-2.4-16.8c-0.1-0.3-0.3-0.6-0.5-0.7c-0.3-0.1-0.6-0.1-0.9,0l-194,114.8
		c-0.2,0.1-0.2,0.2-0.3,0.4L639.7,388.1C639.7,388.1,639.7,388.1,639.7,388.1z M582.5,246.1L471.8,442.5c-0.1,0.2-0.1,0.3-0.1,0.5
		l129.9-173.1c0,0,0-0.1,0-0.1c-2.5-3.9-4.9-7.4-7.2-10.5c-3.3-4.5-6.8-9-10.4-13.4c-0.2-0.2-0.5-0.4-0.8-0.3
		C582.9,245.6,582.6,245.8,582.5,246.1z M246.1,217.5l196.5,110.6c0.1,0.1,0.3,0.1,0.5,0.1c0,0,0,0,0.1,0l-173.2-130
		c0,0-0.1,0-0.1,0c-4,2.6-7.4,4.9-10.5,7.2c-4.5,3.3-9,6.8-13.4,10.4c-0.2,0.2-0.4,0.5-0.3,0.8C245.6,217.1,245.8,217.4,246.1,217.5
		z M472.7,359.1c0.1,0.2,0.2,0.3,0.4,0.4l-85-199.1c0,0-0.1,0-0.1,0c-4.7,0.2-8.8,0.5-12.7,0.9c-5.6,0.6-11.2,1.4-16.8,2.4
		c-0.3,0.1-0.6,0.3-0.7,0.5c-0.1,0.3-0.1,0.6,0,0.9L472.7,359.1z"/>
</g>
</svg>
