<svg id="Layer_1" data-name="Layer 1" xmlns="http://www.w3.org/2000/svg" viewBox="0 0 996.1 327.05"><defs><style>.cls-1,.cls-2,.cls-3,.cls-4{fill:#fff;}.cls-1{fill-opacity:0.4;}.cls-2{fill-opacity:0.6;}.cls-4{fill-opacity:0.8;}</style></defs><title>cass-logo-white</title><g id="Layer0_0_FILL" data-name="Layer0 0 FILL"><path class="cls-1" d="M61.45,133.5a22.4,22.4,0,0,0-6.8-16.35,22.4,22.4,0,0,0-16.35-6.8A22.4,22.4,0,0,0,22,117.15a22.94,22.94,0,0,0,0,32.7A22.32,22.32,0,0,0,38.3,156.7a22.32,22.32,0,0,0,16.35-6.85A22.29,22.29,0,0,0,61.45,133.5Z" transform="translate(-15.1 -35.95)"/><path class="cls-2" d="M112.2,69.1A23.39,23.39,0,0,0,89,46,22.15,22.15,0,0,0,72.7,52.8a22.88,22.88,0,0,0,0,32.65,22.88,22.88,0,0,0,32.65,0A22.21,22.21,0,0,0,112.2,69.1Z" transform="translate(-15.1 -35.95)"/><path class="cls-3" d="M218.05,190.35q4.85-17.8,1.7-31-3-14.15-15.35-27.05Q187,114.25,167.3,121.05a71.16,71.16,0,0,0-28.55,18.3q-9,9.75-18.25,27.8-16.85,34.4,10.7,61,16.35,16.35,38.8,9.5,39.75-12.9,48.05-47.3m-29.75-17.3,1.95-11a9.78,9.78,0,0,1,3.4-6.1,8.27,8.27,0,0,1,6.35-1.7,8.41,8.41,0,0,1,5.35,3.65,10.63,10.63,0,0,1,1,7.1l-2,10.95a10,10,0,0,1-3.45,6.1,7,7,0,0,1-6.3,1.7,7.37,7.37,0,0,1-5.4-3.65,10.32,10.32,0,0,1-.95-7.05M177.05,150.6a10.52,10.52,0,0,1,1,7l-1.95,11a10.1,10.1,0,0,1-3.4,6.1,7.89,7.89,0,0,1-11.75-1.95,10.49,10.49,0,0,1-.95-7.1l1.95-10.95a10.1,10.1,0,0,1,3.4-6.1,8.27,8.27,0,0,1,6.35-1.7,8.17,8.17,0,0,1,5.35,3.65m100.5-56.1a23.18,23.18,0,1,0-39.5,16.35,23.18,23.18,0,0,0,39.5-16.35m180,31.7q-10.95-9-33.65-17.1-23.2-8.5-42.7-8.5-61.2,0-95.6,36.55a122.73,122.73,0,0,0-29.75,52.2q-9.16,21.65-22.2,35.85-24.65,27.6-75.1,27.6-43.9,0-76.1-31.75a91.38,91.38,0,0,1-22.95-37.3l-39,20q10,35.6,32.2,60a132.17,132.17,0,0,0,47.5,34.6,81.67,81.67,0,0,0-6.3,17.1Q90,326.2,86.35,354l-.5,3.9H232.7V354q-1.25-18-5.4-31.2a122.28,122.28,0,0,0-10.2-23.9,121.51,121.51,0,0,0,37.45-24.55q7.95,32,29.6,54.3Q317.8,363,369.25,363q53.65,0,89.75-23.15L441.45,302q-31,23.15-61.2,23.15-38.8,0-61-23.15-21.95-23.15-22-67.8,0-44.4,21.45-70,21.75-25.6,58.3-25.6a103.05,103.05,0,0,1,33.9,6.1q17.6,6.1,24.15,12.9l22.45-31.45M655.6,296v-90.5q0-54.6-25.1-79.75t-80-25.1q-20.25,0-42.7,7.8-22.7,7.55-35.35,17.8l18.75,37.55q22.95-22.7,64.4-22.7,55.1,0,55.1,61.5-18-6.1-32.15-6.1-52.2,0-85.9,26.6Q459,249.35,459,287.9q0,32.2,22,53.9,21.7,21.2,51.5,21.2,55.6,0,82.4-33.4,5.85,17.8,19.55,25.4t40.7,7.55v-22.2Q655.6,329.6,655.6,296m-44.9-61.7v61.2q-26.05,32.2-60.2,32.2-46.35,0-46.35-39.25,0-23.9,21.2-41.25Q546.8,229.6,580.7,229.6q8.55,0,30,4.65m207.85-74.4,12.65-41.7Q789,100.6,761.7,100.6q-36.6,0-59.25,17.55t-22.7,48.8a71.94,71.94,0,0,0,3.65,22.9,61.82,61.82,0,0,0,11.95,19.25,84,84,0,0,0,19.05,16.6q10.2,7.55,41.2,21.95,40.25,17.8,40.25,42.45,0,35.1-41.7,35.1-22.95,0-60.25-24.6l-16.1,42.65A153,153,0,0,0,753.15,363q42.2,0,65.85-18.75,24.15-19.5,24.15-53.65,0-26.1-13.9-43Q816.1,230.1,786.8,216.7l-32.2-14.65Q727.05,189.85,727,165.2q0-11.45,11-19,10.7-7.55,26.8-7.55,27.1,0,53.7,21.2m168,0,12.7-41.7q-41.95-17.55-69.5-17.55-36.6,0-59.25,17.55t-22.7,48.8a71.94,71.94,0,0,0,3.65,22.9,61.82,61.82,0,0,0,12,19.25,84,84,0,0,0,19,16.6q10.2,7.55,41.2,21.95,40.25,17.8,40.25,42.45,0,35.1-41.7,35.1-22.7,0-60.25-24.6l-16.1,42.65A153,153,0,0,0,921.2,363q42.2,0,65.85-18.75,24.15-19.5,24.15-53.65,0-26.1-13.65-43-13.4-17.55-42.7-30.95l-32.2-14.65q-27.55-12.2-27.55-36.85,0-11.45,11-19,10.7-7.55,27.05-7.55Q960,138.65,986.55,159.85Z" transform="translate(-15.1 -35.95)"/><path class="cls-4" d="M191.2,42.8a22.88,22.88,0,0,0-32.65,0,22.88,22.88,0,0,0,0,32.65,22.88,22.88,0,0,0,32.65,0,22.88,22.88,0,0,0,0-32.65Z" transform="translate(-15.1 -35.95)"/></g></svg>